# xmcd
#
# Track frame offsets: 
#        150
#        13274
#        26006
#        42203
#        60072
#        77048
#        95090
#        112499
#        132327
#        156898
#        172341
#        185245
#
# Disc length: 2771 seconds
#
# Revision: 0
# Processed by: cddbd v1.5.2PL0 Copyright (c) Steve Scherf et al.
# Submitted via: ExactAudioCopy v1.0b3
#
DISCID=aa0ad10c
DTITLE=Two Timer - The Big Ass Beer To Go
DYEAR=2015
DGENRE=Blues
TTITLE0=Hank
TTITLE1=Some New Boogie, Right?
TTITLE2=Stick To C.
TTITLE3=New Cocaine
TTITLE4=MLS
TTITLE5=Tie One On
TTITLE6=Woods
TTITLE7=William Stanley Milligan
TTITLE8=Chinaski
TTITLE9=21
TTITLE10=5$
TTITLE11=The Bubble
EXTD=
EXTT0=
EXTT1=
EXTT2=
EXTT3=
EXTT4=
EXTT5=
EXTT6=
EXTT7=
EXTT8=
EXTT9=
EXTT10=
EXTT11=
PLAYORDER=
